<svg width="48" height="48" viewBox="0 0 48 48" fill="none" xmlns="http://www.w3.org/2000/svg">
<rect width="48" height="48" rx="8" fill="#363737"/>
<path d="M20 28C20 29.0609 20.4214 30.0783 21.1716 30.8284C21.9217 31.5786 22.9391 32 24 32C25.0609 32 26.0783 31.5786 26.8284 30.8284C27.5786 30.0783 28 29.0609 28 28C28 26.9391 27.5786 25.9217 26.8284 25.1716C26.0783 24.4214 25.0609 24 24 24C22.9391 24 21.9217 24.4214 21.1716 25.1716C20.4214 25.9217 20 26.9391 20 28Z" stroke="white" stroke-width="1.5" stroke-linecap="round" stroke-linejoin="round"/>
<path d="M21.3334 17.334H26.6667" stroke="white" stroke-width="1.5" stroke-linecap="round" stroke-linejoin="round"/>
<path d="M21.3334 32V37.3333L24 36L26.6667 37.3333V32" stroke="white" stroke-width="1.5" stroke-linecap="round" stroke-linejoin="round"/>
<path d="M21.3333 33.3333H18.6667C17.9594 33.3333 17.2811 33.0524 16.781 32.5523C16.281 32.0522 16 31.3739 16 30.6667V14.6667C16 13.9594 16.281 13.2811 16.781 12.781C17.2811 12.281 17.9594 12 18.6667 12H29.3333C30.0406 12 30.7189 12.281 31.219 12.781C31.719 13.2811 32 13.9594 32 14.6667V30.6667C32 31.3739 31.719 32.0522 31.219 32.5523C30.7189 33.0524 30.0406 33.3333 29.3333 33.3333H26.6667" stroke="white" stroke-width="1.5" stroke-linecap="round" stroke-linejoin="round"/>
</svg>
