<svg width="48" height="48" viewBox="0 0 48 48" fill="none" xmlns="http://www.w3.org/2000/svg">
<g clip-path="url(#clip0_943_13627)">
<path d="M40 0H8C3.58172 0 0 3.58172 0 8V40C0 44.4183 3.58172 48 8 48H40C44.4183 48 48 44.4183 48 40V8C48 3.58172 44.4183 0 40 0Z" fill="#3789B8"/>
<path d="M20.6665 12H27.3332C27.8636 12 28.3723 12.2107 28.7474 12.5858C29.1225 12.9609 29.3332 13.4696 29.3332 14C29.3332 15.2377 28.8415 16.4247 27.9664 17.2998C27.0912 18.175 25.9042 18.6667 24.6665 18.6667H23.3332C22.0955 18.6667 20.9085 18.175 20.0334 17.2998C19.1582 16.4247 18.6665 15.2377 18.6665 14C18.6665 13.4696 18.8772 12.9609 19.2523 12.5858C19.6274 12.2107 20.1361 12 20.6665 12Z" stroke="white" stroke-width="1.5" stroke-linecap="round" stroke-linejoin="round"/>
<path d="M13.3335 30.666V29.3327C13.3335 26.5037 14.4573 23.7906 16.4577 21.7902C18.4581 19.7898 21.1712 18.666 24.0001 18.666C26.8291 18.666 29.5422 19.7898 31.5426 21.7902C33.543 23.7906 34.6668 26.5037 34.6668 29.3327V30.666C34.6668 32.0805 34.1049 33.4371 33.1047 34.4373C32.1045 35.4374 30.748 35.9993 29.3335 35.9993H18.6668C17.2523 35.9993 15.8958 35.4374 14.8956 34.4373C13.8954 33.4371 13.3335 32.0805 13.3335 30.666Z" stroke="white" stroke-width="1.5" stroke-linecap="round" stroke-linejoin="round"/>
</g>
<defs>
<clipPath id="clip0_943_13627">
<rect width="48" height="48" fill="white"/>
</clipPath>
</defs>
</svg>
