<svg width="48" height="48" viewBox="0 0 48 48" fill="none" xmlns="http://www.w3.org/2000/svg">
<rect width="48" height="48" rx="8" fill="#363737"/>
<path d="M20.6666 12H27.3333C27.8637 12 28.3724 12.2107 28.7475 12.5858C29.1226 12.9609 29.3333 13.4696 29.3333 14C29.3333 15.2377 28.8416 16.4247 27.9665 17.2998C27.0913 18.175 25.9043 18.6667 24.6666 18.6667H23.3333C22.0956 18.6667 20.9086 18.175 20.0335 17.2998C19.1583 16.4247 18.6666 15.2377 18.6666 14C18.6666 13.4696 18.8773 12.9609 19.2524 12.5858C19.6275 12.2107 20.1362 12 20.6666 12Z" stroke="white" stroke-width="1.5" stroke-linecap="round" stroke-linejoin="round"/>
<path d="M13.3334 30.666V29.3327C13.3334 26.5037 14.4572 23.7906 16.4576 21.7902C18.458 19.7898 21.1711 18.666 24 18.666C26.829 18.666 29.5421 19.7898 31.5425 21.7902C33.5429 23.7906 34.6667 26.5037 34.6667 29.3327V30.666C34.6667 32.0805 34.1048 33.4371 33.1046 34.4373C32.1044 35.4374 30.7479 35.9993 29.3334 35.9993H18.6667C17.2522 35.9993 15.8957 35.4374 14.8955 34.4373C13.8953 33.4371 13.3334 32.0805 13.3334 30.666Z" stroke="white" stroke-width="1.5" stroke-linecap="round" stroke-linejoin="round"/>
</svg>
