<svg width="48" height="48" viewBox="0 0 48 48" fill="none" xmlns="http://www.w3.org/2000/svg">
<rect width="48" height="48" rx="8" fill="#363737"/>
<path d="M14.6666 17.3333C14.6666 18.7478 15.2285 20.1044 16.2287 21.1046C17.2289 22.1048 18.5855 22.6667 20 22.6667C21.4144 22.6667 22.771 22.1048 23.7712 21.1046C24.7714 20.1044 25.3333 18.7478 25.3333 17.3333C25.3333 15.9188 24.7714 14.5623 23.7712 13.5621C22.771 12.5619 21.4144 12 20 12C18.5855 12 17.2289 12.5619 16.2287 13.5621C15.2285 14.5623 14.6666 15.9188 14.6666 17.3333Z" stroke="white" stroke-width="1.5" stroke-linecap="round" stroke-linejoin="round"/>
<path d="M12 36V33.3333C12 31.9188 12.5619 30.5623 13.5621 29.5621C14.5623 28.5619 15.9188 28 17.3333 28H22.6667C24.0812 28 25.4377 28.5619 26.4379 29.5621C27.4381 30.5623 28 31.9188 28 33.3333V36" stroke="white" stroke-width="1.5" stroke-linecap="round" stroke-linejoin="round"/>
<path d="M29.3334 12.1733C30.4806 12.4671 31.4974 13.1343 32.2236 14.0698C32.9497 15.0052 33.3438 16.1558 33.3438 17.34C33.3438 18.5242 32.9497 19.6748 32.2236 20.6103C31.4974 21.5457 30.4806 22.2129 29.3334 22.5067" stroke="white" stroke-width="1.5" stroke-linecap="round" stroke-linejoin="round"/>
<path d="M36 36.0002V33.3335C35.9932 32.1564 35.5972 31.0146 34.8737 30.0861C34.1502 29.1575 33.1398 28.4945 32 28.2002" stroke="white" stroke-width="1.5" stroke-linecap="round" stroke-linejoin="round"/>
</svg>
