<svg width="48" height="48" viewBox="0 0 48 48" fill="none" xmlns="http://www.w3.org/2000/svg">
<rect width="48" height="48" rx="8" fill="#363737"/>
<path d="M25.7893 35.4213C25.2079 35.648 24.6106 35.8413 23.9999 36C21.9242 35.4616 19.9779 34.5114 18.2767 33.206C16.5754 31.9005 15.154 30.2664 14.0967 28.4007C13.0395 26.535 12.3681 24.4759 12.1224 22.3456C11.8768 20.2153 12.0618 18.0574 12.6666 16C16.8206 16.1901 20.8855 14.7554 23.9999 12C27.1144 14.7554 31.1792 16.1901 35.3333 16C36.1423 18.7528 36.1962 21.6725 35.4893 24.4533" stroke="white" stroke-width="1.5" stroke-linecap="round" stroke-linejoin="round"/>
<path d="M33.3333 29.3335L30.6666 33.3335H36L33.3333 37.3335" stroke="white" stroke-width="1.5" stroke-linecap="round" stroke-linejoin="round"/>
</svg>
