<svg width="48" height="48" viewBox="0 0 48 48" fill="none" xmlns="http://www.w3.org/2000/svg">
<rect width="48" height="48" rx="8" fill="#363737"/>
<path d="M16 34.6667V32C16 29.8783 16.8429 27.8434 18.3431 26.3431C19.8434 24.8429 21.8783 24 24 24C26.1217 24 28.1566 24.8429 29.6569 26.3431C31.1571 27.8434 32 29.8783 32 32V34.6667C32 35.0203 31.8595 35.3594 31.6095 35.6095C31.3594 35.8595 31.0203 36 30.6667 36H17.3333C16.9797 36 16.6406 35.8595 16.3905 35.6095C16.1405 35.3594 16 35.0203 16 34.6667Z" stroke="white" stroke-width="1.5" stroke-linecap="round" stroke-linejoin="round"/>
<path d="M16 13.3333V16C16 18.1217 16.8429 20.1566 18.3431 21.6569C19.8434 23.1571 21.8783 24 24 24C26.1217 24 28.1566 23.1571 29.6569 21.6569C31.1571 20.1566 32 18.1217 32 16V13.3333C32 12.9797 31.8595 12.6406 31.6095 12.3905C31.3594 12.1405 31.0203 12 30.6667 12H17.3333C16.9797 12 16.6406 12.1405 16.3905 12.3905C16.1405 12.6406 16 12.9797 16 13.3333Z" stroke="white" stroke-width="1.5" stroke-linecap="round" stroke-linejoin="round"/>
</svg>
