<svg width="48" height="48" viewBox="0 0 48 48" fill="none" xmlns="http://www.w3.org/2000/svg">
<rect width="48" height="48" rx="8" fill="#14AD19"/>
<g clip-path="url(#clip0_484_40002)">
<path d="M14.6666 25.3332C14.6666 24.6259 14.9476 23.9476 15.4477 23.4476C15.9478 22.9475 16.626 22.6665 17.3333 22.6665H30.6666C31.3739 22.6665 32.0521 22.9475 32.5522 23.4476C33.0523 23.9476 33.3333 24.6259 33.3333 25.3332V33.3332C33.3333 34.0404 33.0523 34.7187 32.5522 35.2188C32.0521 35.7189 31.3739 35.9998 30.6666 35.9998H17.3333C16.626 35.9998 15.9478 35.7189 15.4477 35.2188C14.9476 34.7187 14.6666 34.0404 14.6666 33.3332V25.3332Z" stroke="white" stroke-width="1.5" stroke-linecap="round" stroke-linejoin="round"/>
<path d="M22.6666 29.3333C22.6666 29.687 22.8071 30.0261 23.0572 30.2761C23.3072 30.5262 23.6463 30.6667 24 30.6667C24.3536 30.6667 24.6927 30.5262 24.9428 30.2761C25.1928 30.0261 25.3333 29.687 25.3333 29.3333C25.3333 28.9797 25.1928 28.6406 24.9428 28.3905C24.6927 28.1405 24.3536 28 24 28C23.6463 28 23.3072 28.1405 23.0572 28.3905C22.8071 28.6406 22.6666 28.9797 22.6666 29.3333Z" stroke="white" stroke-width="1.5" stroke-linecap="round" stroke-linejoin="round"/>
<path d="M18.6666 22.6667V17.3333C18.6666 15.9188 19.2285 14.5623 20.2287 13.5621C21.2289 12.5619 22.5855 12 24 12C25.4144 12 26.771 12.5619 27.7712 13.5621C28.7714 14.5623 29.3333 15.9188 29.3333 17.3333V22.6667" stroke="white" stroke-width="1.5" stroke-linecap="round" stroke-linejoin="round"/>
</g>
<defs>
<clipPath id="clip0_484_40002">
<rect width="32" height="32" fill="white" transform="translate(8 8)"/>
</clipPath>
</defs>
</svg>
